<svg width="411" height="91" viewBox="0 0 411 91" fill="none" xmlns="http://www.w3.org/2000/svg">
<rect width="411" height="91" fill="url(#paint0_linear_157_48)" fill-opacity="0.3"/>
<path d="M33.0845 58.4183C33.6671 57.676 34.8533 57.9827 34.8982 58.8872L35.05 61.9517C35.0702 62.3597 35.3513 62.6993 35.7552 62.8037L38.8705 63.6092C39.8409 63.8601 39.8011 65.2009 38.8143 65.4973L36.079 66.3189C35.6126 66.459 35.2948 66.8916 35.3177 67.355L35.4495 70.0139C35.4959 70.9506 34.2802 71.4714 33.6547 70.7827L31.4013 68.3016C31.1495 68.0244 30.7474 67.9204 30.3678 68.0344L26.9711 69.0547C26.0283 69.3379 25.3155 68.3185 25.9188 67.5497L27.6312 65.3676C27.9296 64.9873 27.9217 64.4705 27.6123 64.1299L25.7976 62.1318C25.143 61.4111 25.9167 60.26 26.8872 60.5109L30.0025 61.3164C30.4064 61.4208 30.8482 61.2681 31.111 60.9333L33.0845 58.4183Z" fill="#8053FF"/>
<path d="M354.712 14.7336L364.118 41.3149C364.323 41.8947 363.783 42.4989 363.164 42.3827L332.859 36.6956C332.239 36.5794 332.027 35.8339 332.482 35.3782L353.382 14.4841C353.808 14.0586 354.52 14.1924 354.712 14.7336Z" stroke="white" stroke-opacity="0.3" stroke-width="0.4"/>
<path d="M348.826 47.2153L378.6 51.6684C380.006 51.8787 380.612 53.3459 379.711 54.3571L361.929 74.3069C361.028 75.3181 359.265 75.1486 358.699 73.9962L346.706 49.5934C346.1 48.3609 347.322 46.9904 348.826 47.2153Z" stroke="white" stroke-opacity="0.3" stroke-width="0.4"/>
<path d="M371.374 31.9645L384.275 33.6183C385.706 33.8017 386.343 35.2881 385.429 36.3131L377.42 45.2985C376.507 46.3236 374.716 46.1324 374.173 44.9519L369.281 34.3127C368.723 33.0997 369.903 31.7759 371.374 31.9645Z" stroke="white" stroke-opacity="0.3" stroke-width="0.4"/>
<line y1="-0.2" x2="13.0741" y2="-0.2" transform="matrix(0.372468 0.928045 -0.953029 0.30288 363.277 15.6)" stroke="white" stroke-opacity="0.3" stroke-width="0.4"/>
<line y1="-0.2" x2="13.0741" y2="-0.2" transform="matrix(-0.372468 0.928045 0.953029 0.30288 28.2441 22.5333)" stroke="white" stroke-opacity="0.3" stroke-width="0.4"/>
<line y1="-0.2" x2="13.0741" y2="-0.2" transform="matrix(0.372468 0.928045 -0.953029 0.30288 368.147 15.6)" stroke="white" stroke-opacity="0.3" stroke-width="0.4"/>
<line y1="-0.2" x2="13.0741" y2="-0.2" transform="matrix(-0.372468 0.928045 0.953029 0.30288 23.3744 22.5333)" stroke="white" stroke-opacity="0.3" stroke-width="0.4"/>
<line y1="-0.2" x2="13.0741" y2="-0.2" transform="matrix(0.372468 0.928045 -0.953029 0.30288 373.017 15.6)" stroke="white" stroke-opacity="0.3" stroke-width="0.4"/>
<line y1="-0.2" x2="13.0741" y2="-0.2" transform="matrix(-0.372468 0.928045 0.953029 0.30288 18.5047 22.5333)" stroke="white" stroke-opacity="0.3" stroke-width="0.4"/>
<defs>
<linearGradient id="paint0_linear_157_48" x1="17.0438" y1="4.33334" x2="399.442" y2="30.0295" gradientUnits="userSpaceOnUse">
<stop offset="0.0515137" stop-color="#2C2C2C"/>
<stop offset="0.411311" stop-color="#D9D9D9"/>
<stop offset="0.897392" stop-color="#8053FF"/>
</linearGradient>
</defs>
</svg>
